<?xml version="1.0" encoding="UTF-8"?>
<svg class="footer-brands-logo__athlon"
   viewBox="0 0 55.25 12"
   version="1.1"
   xmlns="http://www.w3.org/2000/svg"
   xmlns:svg="http://www.w3.org/2000/svg">
  <g
	 id="Athlon_Logo_svg"
	 stroke="none"
	 stroke-width="1"
	 fill="none"
	 fill-rule="evenodd"
	 transform="scale(0.25)">
	<path
	   d="m 171.01245,17.099508 c 10.6953,0 18.53805,5.487399 18.53805,15.382343 C 189.5505,42.287723 180.74025,48 170.40116,48 c -10.44055,0 -18.53773,-5.982005 -18.53773,-15.472985 0,-9.58068 8.81087,-15.427507 19.14902,-15.427507 z M 0,47.564358 C 30.982715,13.780598 64.57486,15.239952 64.57486,15.239952 42.078844,18.30168 21.216274,37.345426 11.461456,47.564358 v 0 z m 16.339493,3.13e-4 C 44.784083,13.780598 75.711826,15.355057 75.711826,15.355057 55.971936,17.839692 36.775168,37.162575 27.736553,47.564671 v 0 z m 183.238797,-29.121227 15.4857,17.870429 h 0.15267 V 24.45744 c 0,-2.565867 -0.71684,-6.013996 -0.71684,-6.013996 v 0 H 221 c 0,0 -0.28436,2.01638 -0.41817,4.112671 l -0.028,0.484297 c -0.0249,0.483953 -0.0401,0.964228 -0.0401,1.417028 v 0 l -0.003,23.096254 h -7.63636 L 197.38821,29.414792 h -0.15266 V 41.98224 c 0,2.565867 0.58364,5.569572 0.58364,5.569572 v 0 h -6.76749 c 0,0 0.61976,-3.003705 0.61976,-5.569572 v 0 -16.151696 c 0,-3.405788 -0.61976,-7.3871 -0.61976,-7.3871 v 0 z m -59.52154,-0.0019 c 0,0 -0.89651,4.025849 -0.89651,6.369975 v 16.939866 c 1.35953,0.363192 3.51442,0.57427 5.34733,0.57427 2.80168,0 4.9261,-0.226446 7.33858,-0.833648 l -0.0383,6.058846 H 129.1221 c 0,0 0.70552,-3.982567 0.70552,-6.282156 V 24.767 c 0,-2.299589 -0.70552,-6.325438 -0.70552,-6.325438 z m -33.86324,-9.41e-4 c 0,0 -0.41726,1.87203 -0.67953,3.79018 l -0.062,0.479442 c -0.0872,0.717434 -0.14586,1.419957 -0.14586,2.01128 v 0 5.088452 h 9.16741 v -5.088452 c 0,-2.299589 -0.8874,-6.280902 -0.8874,-6.280902 v 0 h 11.11748 c 0,0 -0.89713,3.981313 -0.89713,6.280902 v 0 16.502029 c 0,2.300529 0.89242,6.326065 0.89242,6.326065 v 0 h -11.11277 c 0,0 0.8874,-4.025536 0.8874,-6.326065 v 0 -6.945499 h -9.16741 v 6.945499 c 0,2.300529 0.8874,6.326065 0.8874,6.326065 v 0 H 95.080734 c 0,0 0.892428,-4.025536 0.892428,-6.326065 v 0 -16.502029 c 0,-2.299589 -0.896826,-6.280902 -0.896826,-6.280902 v 0 z m -51.442889,7.872298 0.557557,1.147172 c 3.904345,8.020207 7.816913,15.779607 10.341616,20.075726 v 0 H 48.705926 c 0,0 -2.21459,-5.034159 -4.700716,-10.260351 l -0.287955,-0.603599 c -0.14447,-0.30195 -0.289594,-0.603919 -0.435001,-0.904978 3.467933,-3.229524 7.332919,-6.497938 11.468367,-9.45397 z m 38.013446,-7.893625 0.517991,5.276007 c 0,0 -3.027356,-0.140822 -6.092791,-0.270469 l -0.633791,-0.02661 c -2.529493,-0.10542 -4.943869,-0.196006 -5.54877,-0.185605 v 0 l -0.0091,17.904929 c 0,2.521017 0.763323,6.414511 0.763323,6.414511 v 0 H 70.829076 c 0,0 0.746988,-4.024908 0.746988,-6.325438 v 0 -17.990552 c -0.06304,-0.0011 -0.143443,-0.0019 -0.239644,-0.0023 l -0.334423,-1.01e-4 c -1.136028,0.0028 -3.424529,0.03314 -5.722045,0.07638 l -0.764604,0.01487 c -2.539337,0.05103 -4.932952,0.116001 -5.612317,0.174879 3.026274,-1.890292 6.475674,-3.723816 9.678172,-5.060538 v 0 z m 77.914153,2.147475 c -4.7794,0 -8.65476,5.375744 -8.65476,12.006665 0,6.631548 3.87536,12.007605 8.65476,12.007605 4.77846,0 8.65412,-5.376057 8.65412,-12.007605 0,-6.630921 -3.87566,-12.006665 -8.65412,-12.006665 z M 25.966148,0 42.319777,0.00784093 c 0,0 3.209409,6.97529457 7.377525,15.76404007 -3.864672,0.57082 -8.637792,1.619623 -13.998324,3.501447 v 0 L 31.448247,9.9821357 26.127294,23.319877 c -3.010882,1.494482 -6.124483,3.253047 -9.299966,5.330267 2.288082,-5.180662 3.348566,-7.832152 5.560002,-13.111923 0,0 3.172656,-7.4310093 3.630649,-10.9443748 0,0 0.601548,-2.9936685 -0.05183,-4.5938462 z"
	   id="Combined-Shape"
	   fill="#ffffff" />
  </g>
</svg>