<?xml version="1.0" encoding="UTF-8"?>
<svg class="footer-brands-logo__mb-wordmark" xmlns="http://www.w3.org/2000/svg" viewBox="0 0 135.74 15.62"><defs><style>.cls-1{fill:none}.cls-2{fill:#fff}</style></defs><g><path class="cls-1" d="M0 0h135.74v15.62H0z"></path><path class="cls-2" d="M87.06 8.72h5.09v1.21h-5.09z"></path><path class="cls-2" d="M3.33 1.67l-.49 11.75v.24c0 1 .24 1.21 1.94 1.33v.48a17.41 17.41 0 00-2.18-.12 19.09 19.09 0 00-2.3.12V15c1.57-.12 1.82-.24 1.82-1.57L2.6 2.28v-.12C2.6 1.07 2.24.95.66.83V.22a10.46 10.46 0 001.82.12A13.16 13.16 0 004.66.22l4.24 11.5L13.14.22a14.69 14.69 0 002.18.12 10.46 10.46 0 001.81-.12v.61c-1.57.12-1.94.36-1.94 1.33v.12l.24 11.14c0 1.21.24 1.45 1.82 1.57v.48a26.64 26.64 0 00-2.78-.12 25.49 25.49 0 00-2.78.12V15c1.57-.12 1.94-.36 1.94-1.45v-.12l-.25-11.76-3.76 10.05-.24.73-.38.85-.24.85-.24.73h-.35l-.24-.73-.36-.85-.36-.85-.12-.73z" transform="translate(-.3 -.1)"></path><path class="cls-2" d="M23.19 14.87c-2.06 0-2.91-1.57-3-5.09h6.78c0-3.51-1.45-5.33-4.12-5.33s-4.36 2.18-4.36 5.69 1.7 5.57 4.6 5.57c2.18 0 3.63-1.33 4-3.75h-.85c-.36 1.94-1.33 2.91-3 2.91m-2.96-5.93c.24-2.54 1.09-4 2.54-4s2.18 1.21 2.3 4z" transform="translate(-.3 -.1)"></path><path class="cls-2" d="M28.39 5.31v-.49a17.61 17.61 0 003-.48c.12.85.12 1.21.24 1.94v.24a2.8 2.8 0 012.66-2.06 1.81 1.81 0 011.94 1.82 1 1 0 01-1 1.09c-.48 0-1-.36-1-.73v-.73c0-.36-.24-.48-.73-.48-1.21 0-1.94 1.45-1.94 3.63v4.72c0 1 .24 1.21 1.57 1.21v.48a20.61 20.61 0 00-2.54-.12 20.61 20.61 0 00-2.54.12V15c1.33-.12 1.57-.24 1.57-1.21V6.4c0-1-.12-1.09-1.33-1.09z" transform="translate(-.3 -.1)"></path><path class="cls-2" d="M44.74 4.22V8h-.48c-.37-2-1.26-2.94-2.67-2.94-1.7 0-2.66 1.82-2.66 5.09s.85 4.72 2.66 4.72c1.45 0 2.18-1 2.54-3h1c-.24 2.42-1.57 3.75-3.63 3.75-2.66 0-4.36-2.18-4.36-5.57s1.82-5.69 4.48-5.69a2.86 2.86 0 012.3 1l.58-1.26h.24z" transform="translate(-.3 -.1)"></path><path class="cls-2" d="M51.4 14.87c-2.06 0-2.91-1.57-3-5.09h6.78c0-3.51-1.45-5.33-4.12-5.33s-4.36 2.18-4.36 5.69 1.7 5.57 4.6 5.57c2.18 0 3.63-1.33 4-3.75h-.85c-.36 1.94-1.33 2.91-3 2.91m-2.96-5.93c.24-2.54 1.09-4 2.54-4s2.18 1.21 2.3 4z" transform="translate(-.3 -.1)"></path><path class="cls-2" d="M65.69 13.06V.1a28.16 28.16 0 01-3.39.61v.36c1.45 0 1.57.12 1.57 1.33v4c-.87-1.34-1.45-1.82-2.66-1.82-2.42 0-4.12 2.3-4.12 5.57s1.7 5.57 4.24 5.57a2.88 2.88 0 002.78-1.82 9.65 9.65 0 00.36 1.82 13.19 13.19 0 012.66-.48h.36v-.36c-1.7-.24-1.82-.36-1.82-1.82M61.45 15c-1.57 0-2.54-1.7-2.54-5s.85-4.84 2.42-4.84 2.54 1.7 2.54 5.09C64 13.42 63.14 15 61.45 15" transform="translate(-.3 -.1)"></path><path class="cls-2" d="M73.07 14.87c-2.06 0-2.91-1.57-3-5.09h6.78c0-3.51-1.45-5.33-4.12-5.33s-4.36 2.18-4.36 5.69S70 15.72 73 15.72c2.18 0 3.63-1.33 4-3.75h-.9c-.48 1.94-1.45 2.91-3 2.91M70 8.94c.24-2.54 1.09-4 2.54-4s2.18 1.21 2.3 4z" transform="translate(-.3 -.1)"></path><path class="cls-2" d="M78.64 15.72v-3.87h.48c.36 2.06 1.33 3 2.91 3a2.11 2.11 0 002.3-2.06c0-.73-.48-1.33-1.57-1.82l-.85-.36-.85-.36c-1.7-.73-2.18-1.45-2.18-2.66a3.1 3.1 0 013.39-3 4 4 0 012.3.73l.36-1h.36v3.53h-.48c-.24-1.82-1-2.66-2.42-2.66a2.05 2.05 0 00-2.18 1.94c0 .85.36 1.21 2.42 2.06l1 .36c1.7.73 2.3 1.45 2.3 2.78a3.35 3.35 0 01-3.63 3.27 3.64 3.64 0 01-2.66-1l-.48 1.09z" transform="translate(-.3 -.1)"></path><path class="cls-2" d="M103.1 4a3.68 3.68 0 00-1.33-2.91 4.66 4.66 0 00-3.15-.87h-5.93v.61c1.57.12 1.82.36 1.82 1.57v10.9c0 1.21-.12 1.33-1.82 1.57v.48h5.69a5.8 5.8 0 003.51-.85 4.35 4.35 0 001.94-3.5 3.67 3.67 0 00-1.45-3 3.58 3.58 0 00-1.82-.73A3.22 3.22 0 00103.1 4m-6.66-2.93h1.94c1.94 0 2.78 1 2.78 3a3.62 3.62 0 01-.73 2.42c-.48.61-1.09.73-2.42.73h-1.57zm2.18 6.78a3.21 3.21 0 012.42.73 3.75 3.75 0 01.85 2.54c0 2.3-1.09 3.51-3.15 3.51h-.85c-1.21 0-1.45-.12-1.45-1.21V7.85z" transform="translate(-.3 -.1)"></path><path class="cls-2" d="M110.49 14.87c-2.06 0-2.91-1.57-3-5.09h6.78c0-3.51-1.45-5.33-4.12-5.33s-4.36 2.18-4.36 5.69 1.7 5.57 4.6 5.57c2.18 0 3.63-1.33 4-3.75h-.85c-.48 1.94-1.45 2.91-3 2.91m-3-5.93c.24-2.54 1.09-4 2.54-4s2.18 1.21 2.3 4z" transform="translate(-.3 -.1)"></path><path class="cls-2" d="M115.33 5.43v-.49a10.1 10.1 0 003-.73 9.6 9.6 0 01.24 2.06 3.46 3.46 0 013-1.82 3.28 3.28 0 013 1.82 4.82 4.82 0 01.43 2.06v5.45c0 1 .24 1.21 1.57 1.21v.48a19.81 19.81 0 00-2.42-.12 17.92 17.92 0 00-2.42.12V15c1.21 0 1.57-.24 1.57-1.21V8.33c0-1.94-.61-2.78-2.06-2.78s-2.3 1-2.3 2.78v5.45c0 .85.24 1.09 1.45 1.21v.48a24.28 24.28 0 00-4.84 0V15c1.33-.12 1.57-.24 1.57-1.21V6.52c0-1-.12-1.09-1.33-1.09h-.48" transform="translate(-.3 -.1)"></path><path class="cls-2" d="M127.44 15.36l6.18-10.05h-2.78c-1.45 0-1.82.36-2.66 2.3h-.48l.48-2.91h7.75l-6.18 10.05h2.66c1.57 0 2.18-.61 2.91-2.66h.48l-.61 3.27z" transform="translate(-.3 -.1)"></path></g></svg>