<?xml version="1.0" encoding="UTF-8"?>
<svg class="footer-brands-logo__bank"
   viewBox="0 0 139.75533 12"
   version="1.1"
   xmlns:xlink="http://www.w3.org/1999/xlink"
   xmlns="http://www.w3.org/2000/svg"
   xmlns:svg="http://www.w3.org/2000/svg">
  <defs
	 id="defs5">
	<polygon
	   id="path-1"
	   points="120.99502,0 120.99502,47.868845 0,47.868845 0,0 " />
  </defs>
  <g
	 id="Desktop_XL_Height-46_Mercedes-Benz_Bank_Logo"
	 stroke="none"
	 stroke-width="1"
	 fill="none"
	 fill-rule="evenodd"
	 transform="scale(0.24019486)">
	<rect
	   id="Rectangle-Copy-12"
	   fill-opacity="0.2"
	   fill="#ff0000"
	   opacity="0"
	   x="0"
	   y="0"
	   width="85.099998"
	   height="46" />
	<g
	   id="Group"
	   transform="translate(0,2)">
	  <g
		 id="Mercedes-Benz_Bank_Label"
		 transform="translate(0,0.090592)">
		<polygon
		   id="Fill-1"
		   fill="#ffffff"
		   points="267.90226,26.718422 267.90226,30.305577 283.44349,30.305577 283.44349,26.718422 " />
		<path
		   d="M 9.4590244,4.9507606 8.0680512,40.967662 c 0,0.208901 0,0.417803 0,0.626028 0,3.053071 0.9038277,3.677747 5.7718948,4.023211 V 47.28338 C 10.293744,47.004845 8.9027707,46.935211 6.9555437,46.935211 5.0076391,46.935211 3.6166659,47.004845 0,47.28338 V 45.616901 C 4.868745,45.271437 5.5638929,44.715042 5.7034645,40.967662 L 7.163546,6.8944225 c 0,-0.1392676 0,-0.2785352 0,-0.4171267 0,-3.1923381 -0.9736135,-3.8859719 -5.7718952,-4.163831 V 0.57870422 c 2.7114831,0.2075493 3.7555599,0.27785916 5.7027869,0.27785916 2.5732666,0 3.9635623,-0.0703099 6.6066143,-0.34749296 L 26.637171,35.625465 39.782647,0.50907042 c 3.129521,0.2771831 4.590957,0.34749296 6.677078,0.34749296 1.738547,0 2.851055,-0.0703099 5.494107,-0.27785916 V 2.3134648 C 47.224659,2.5913239 46.18126,3.2849577 46.18126,6.408338 v 0.4860845 l 0.764933,34.0732395 c 0.07046,3.74738 0.695148,4.303775 5.703465,4.649239 v 1.666479 c -4.382277,-0.415774 -6.051039,-0.554366 -8.694091,-0.554366 -2.642375,0 -4.311136,0.138592 -8.693413,0.554366 v -1.666479 c 4.729173,-0.277183 5.772572,-1.04045 5.772572,-4.300394 V 40.967662 L 40.408687,5.0197183 28.933327,35.971606 l -0.834719,2.291831 -0.974291,2.566985 -0.903828,2.637296 -0.765611,2.287775 H 24.412156 L 23.647222,43.536 21.699318,38.122141 20.865276,35.694423 9.4590244,4.9507606"
		   id="Fill-2"
		   fill="#ffffff" />
		<path
		   d="m 61.685225,27.366761 c 0.695825,-7.980846 3.339555,-12.075719 7.790263,-12.075719 4.520493,0 6.815972,3.885972 7.232654,12.075719 z m 9.042342,18.183211 c -6.329504,0 -9.110773,-4.859493 -9.180559,-15.685183 H 82.272712 C 82.133818,19.177014 77.752219,13.486648 69.545274,13.486648 c -8.346517,0 -13.562836,6.732169 -13.562836,17.418591 0,10.688451 5.216319,16.93386 14.188198,16.93386 6.815972,0 11.267357,-4.232789 12.171185,-11.382761 h -2.781269 c -0.835397,5.90062 -3.895132,9.093634 -8.832985,9.093634 z"
		   id="Fill-3"
		   fill="#ffffff" />
		<path
		   d="m 86.413111,16.05431 v -1.248676 c 3.964917,-0.347493 6.329504,-0.763268 9.181236,-1.596845 0.347574,2.568338 0.486468,3.677746 0.625362,5.760676 v 0.763267 c 1.530545,-3.955605 4.521171,-6.246084 8.137841,-6.246084 3.47709,0 6.05103,2.290479 6.05103,5.620732 0,2.013296 -1.18229,3.332282 -2.92151,3.332282 -1.59966,0 -2.85106,-0.972845 -2.85106,-2.359437 0,-0.139943 0.0691,-0.41645 0.13822,-0.69431 l 0.13957,-0.694309 c 0,-0.208226 0,-0.415775 0,-0.624676 0,-0.972169 -0.83472,-1.665127 -2.0868,-1.665127 -3.615987,0 -5.911466,4.372056 -5.911466,11.242141 v 14.504112 c 0,2.984789 0.695148,3.539155 4.937856,3.746705 v 1.388619 c -3.824671,-0.348169 -5.286107,-0.415774 -7.719802,-0.415774 -2.504158,0 -3.964917,0.06761 -7.789586,0.415774 v -1.388619 c 4.242028,-0.20755 5.007639,-0.761916 5.007639,-3.746705 V 19.454873 c -0.06978,-2.984112 -0.417359,-3.330929 -4.034025,-3.400563 h -0.904505"
		   id="Fill-4"
		   fill="#ffffff" />
		<path
		   d="m 137.01323,12.863324 v 11.449014 h -1.53054 c -1.25208,-6.036507 -3.82467,-8.951662 -8.06737,-8.951662 -5.21632,0 -8.27674,5.620056 -8.27674,15.544563 0,9.716958 2.71284,14.644733 8.06806,14.644733 4.31181,0 6.88575,-3.055775 7.71979,-9.16124 h 2.85174 c -0.90383,7.424451 -4.86807,11.450367 -11.12779,11.450367 -8.06805,0 -13.56216,-6.801127 -13.56216,-16.93386 0,-10.338929 5.56322,-17.418591 13.77084,-17.418591 2.98995,0 4.86807,0.762591 7.09376,2.915155 l 1.87812,-3.538479 h 1.18229"
		   id="Fill-5"
		   fill="#ffffff" />
		<g
		   id="Group-11"
		   transform="translate(142.7316)">
		  <mask
			 id="mask-2"
			 fill="#ffffff">
			<use
			   xlink:href="#path-1"
			   id="use13"
			   x="0"
			   y="0"
			   width="100%"
			   height="100%" />
		  </mask>
		  <g
			 id="Clip-7" />
		  <path
			 d="m 5.702787,27.366761 c 0.6958253,-7.980846 3.3388777,-12.075719 7.790263,-12.075719 4.520494,0 6.815295,3.885972 7.233332,12.075719 z m 9.042342,18.183211 c -6.3295038,0 -9.1114503,-4.859493 -9.1805586,-15.685183 H 26.290275 C 26.151381,19.177014 21.769781,13.486648 13.562158,13.486648 5.216319,13.486648 0,20.218817 0,30.905239 c 0,10.688451 5.216319,16.93386 14.188198,16.93386 6.816649,0 11.267357,-4.232789 12.171185,-11.382761 h -2.781946 c -0.83472,5.90062 -3.894454,9.093634 -8.832308,9.093634 z"
			 id="Fill-6"
			 fill="#ffffff"
			 mask="url(#mask-2)" />
		  <path
			 d="m 45.551155,45.964394 c -5.007639,0 -7.650014,-5.203605 -7.650014,-15.12676 0,-10.063775 2.433695,-14.991549 7.440656,-14.991549 5.147889,0 7.790264,5.274591 7.790264,15.476281 0,9.645296 -2.573945,14.642028 -7.580906,14.642028 z m 13.07569,-5.898591 V 0 c -3.477772,0.92484507 -6.60797,1.4812394 -10.502424,1.8976901 v 1.1797184 c 4.3816,0 4.937854,0.4854084 4.937854,4.0935211 V 19.316282 c -2.572589,-4.163831 -4.589602,-5.413183 -8.34584,-5.413183 -7.442011,0 -12.65833,7.009352 -12.65833,17.00214 0,9.992789 5.286104,17.004169 12.866333,17.004169 3.964917,0 6.677755,-1.80507 8.624982,-5.692394 0.278466,2.63662 0.278466,2.915831 0.973614,5.552451 2.851732,-0.901859 4.034025,-1.17769 8.137159,-1.665127 l 1.043399,-0.139944 v -1.179042 c -4.660065,-0.138591 -5.076747,-0.486084 -5.076747,-4.719549 z"
			 id="Fill-8"
			 fill="#ffffff"
			 mask="url(#mask-2)" />
		  <path
			 d="m 72.040624,27.366761 c 0.695825,-7.980846 3.3382,-12.075719 7.789585,-12.075719 4.521172,0 6.815295,3.885972 7.233332,12.075719 z m 9.041665,18.183211 c -6.328827,0 -9.110773,-4.859493 -9.180559,-15.685183 H 92.627434 C 92.48854,19.177014 88.106941,13.486648 79.899995,13.486648 c -8.345839,0 -13.562158,6.732169 -13.562158,17.418591 0,10.688451 5.216319,16.93386 14.188198,16.93386 6.815294,0 11.26668,-4.232789 12.170508,-11.382761 h -2.781947 c -0.834042,5.90062 -3.894454,9.093634 -8.832307,9.093634 z"
			 id="Fill-9"
			 fill="#ffffff"
			 mask="url(#mask-2)" />
		  <path
			 d="M 98.531448,47.909408 V 36.319775 l 1.528512,-0.06963 c 1.25344,6.315718 4.1736,9.36676 9.04167,9.36676 4.10448,0 7.16354,-2.704225 7.16354,-6.245408 0,-2.359437 -1.32119,-3.955606 -4.72849,-5.482141 l -2.64441,-1.179042 -3.19863,-1.458254 c -5.07607,-2.359436 -6.676401,-4.302422 -6.676401,-8.327662 0,-5.482141 4.311131,-9.229521 10.432641,-9.229521 2.71284,0 4.72917,0.624676 7.09376,2.220845 l 1.18229,-2.845521 h 1.25276 v 10.756056 h -1.60101 c -0.62604,-5.550422 -2.92016,-8.187718 -7.30176,-8.187718 -3.68646,0 -6.53683,2.498028 -6.53683,5.76 0,2.775211 1.04204,3.679099 7.37155,6.45431 l 2.92016,1.248676 c 5.2861,2.290479 7.16422,4.510648 7.16422,8.604845 0,5.829634 -4.65871,9.992789 -11.19757,9.992789 -3.19863,0 -5.70279,-0.831549 -8.34584,-2.913803 l -1.669438,3.124056 h -1.250724"
			 id="Fill-10"
			 fill="#ffffff"
			 mask="url(#mask-2)" />
		</g>
		<path
		   d="m 302.40151,23.965521 c 3.6851,0 5.77325,0.625352 7.37087,2.222197 1.59965,1.594817 2.50619,4.580282 2.50619,7.909859 0,6.940395 -3.48048,10.826367 -9.66838,10.826367 h -2.50348 c -3.68645,0 -4.31249,-0.554367 -4.31249,-3.607437 V 23.965521 Z M 295.79422,2.9388169 h 5.91079 c 5.84235,0 8.4163,2.8448451 8.4163,9.2984791 0,3.192338 -0.76493,5.482817 -2.2948,7.287211 -1.5319,1.735437 -3.40867,2.289803 -7.30447,2.289803 h -4.72782 z m 20.5177,9.1598871 c 0,-3.6087885 -1.53122,-6.8011265 -4.1736,-8.8137463 -2.36594,-1.7354366 -5.07607,-2.49870418 -9.59792,-2.49870418 H 284.24839 V 2.5216901 c 5.00696,0.2778592 5.70211,0.8329015 5.70211,4.5802817 V 40.760789 c 0,3.74738 -0.55625,4.233464 -5.70211,4.649239 v 1.665127 h 17.59551 c 5.14924,0 7.92848,-0.624676 10.85,-2.428394 3.47777,-2.220845 5.77392,-6.45431 5.77392,-10.826367 0,-3.74738 -1.60032,-7.147943 -4.31316,-9.229521 -1.46076,-1.110084 -2.99199,-1.735436 -5.49411,-2.220845 5.00967,-1.873352 7.65137,-5.413859 7.65137,-10.271324 z"
		   id="Fill-12"
		   fill="#ffffff" />
		<path
		   d="m 329.81852,27.366761 c 0.69786,-7.980846 3.34023,-12.075719 7.79026,-12.075719 4.5205,0 6.81665,3.885972 7.23469,12.075719 z m 9.04234,18.183211 c -6.3295,0 -9.11213,-4.859493 -9.18124,-15.685183 h 20.72571 c -0.1389,-10.687775 -4.52049,-16.378141 -12.72608,-16.378141 -8.34584,0 -13.56148,6.732169 -13.56148,17.418591 0,10.688451 5.21564,16.93386 14.18752,16.93386 6.81597,0 11.26532,-4.232789 12.17186,-11.382761 h -2.7833 c -0.83472,5.90062 -3.89446,9.093634 -8.83299,9.093634 z"
		   id="Fill-13"
		   fill="#ffffff" />
		<path
		   d="m 354.08839,16.332169 v -1.179718 c 4.03471,-0.555719 6.39929,-1.110085 9.18124,-2.082254 0.34757,1.596845 0.55558,3.400564 0.69583,6.037183 2.50212,-3.746704 5.35385,-5.412507 9.3872,-5.412507 4.1736,0 7.79026,2.151212 9.18124,5.551099 0.69514,1.666479 1.04407,3.609465 1.04407,6.246084 v 16.656 c 0,2.984789 0.69515,3.539155 4.93718,3.746705 v 1.388619 c -3.6851,-0.348169 -5.07607,-0.415774 -7.57955,-0.415774 -2.57395,0 -3.96492,0.06761 -7.58294,0.415774 v -1.388619 c 3.75692,-0.139268 4.66074,-0.832226 4.66074,-3.607437 V 25.284507 c 0,-6.038535 -1.80765,-8.46693 -6.25904,-8.46693 -4.72985,0 -7.23468,2.984113 -7.23468,8.674479 v 16.795268 c 0,2.775211 0.90382,3.468169 4.52184,3.607437 v 1.388619 c -3.61802,-0.348169 -5.00899,-0.415774 -7.51112,-0.415774 -2.43505,0 -3.89716,0.06761 -7.51111,0.415774 v -1.388619 c 4.2427,-0.20755 4.93717,-0.761916 4.93717,-3.746705 V 19.663775 c -0.0684,-2.846198 -0.48647,-3.261972 -3.96424,-3.261972 -0.208,0 -0.5549,-0.06963 -0.90383,-0.06963"
		   id="Fill-14"
		   fill="#ffffff" />
		<path
		   d="m 391.2185,47.075155 18.84962,-30.951211 h -8.5552 c -4.52049,0 -5.63503,0.970817 -8.13716,7.216901 h -1.39232 l 1.60168,-9.021296 h 23.92366 l -18.9167,30.951888 h 8.13716 c 4.72985,0 6.6764,-1.874029 8.7632,-8.189747 h 1.45941 l -1.8063,9.993465 H 391.2185"
		   id="Fill-15"
		   fill="#ffffff" />
		<path
		   d="m 451.31627,41.359775 c 0,2.984112 0.62739,3.535774 4.23999,3.535774 h 2.57124 c 6.18045,0 9.65957,-3.881915 9.65957,-10.814873 0,-3.26062 -0.90518,-6.171718 -2.50416,-7.835493 -1.52648,-1.597521 -3.75149,-2.290479 -7.36748,-2.290479 h -6.59916 z m 4.72443,-19.554254 c 3.82264,0 5.6994,-0.554366 7.22859,-2.288451 1.52716,-1.66445 2.29209,-4.090816 2.29209,-7.28045 0,-6.4475496 -2.50077,-9.2903665 -8.33703,-9.2903665 h -5.90808 V 21.805521 Z m 2.01566,-21.00845058 c 4.51575,0 7.22655,0.69295778 9.59114,2.49599998 2.56853,2.0795493 4.09907,5.2691831 4.09907,8.8063096 0,4.852733 -2.57123,8.320226 -7.57345,10.261183 6.25294,1.248 9.79576,5.411831 9.79576,11.442254 0,4.367324 -2.22231,8.597408 -5.76512,10.814873 -2.77992,1.802366 -5.70076,2.428394 -10.91234,2.428394 h -17.51081 v -1.663098 c 5.14179,-0.417127 5.6994,-0.901183 5.6994,-4.645859 V 7.1067042 c 0,-3.7453521 -0.69515,-4.2990422 -5.6994,-4.6465352 V 0.79707042 Z"
		   id="Fill-16"
		   fill="#ffffff" />
		<path
		   d="m 496.79086,28.463324 c -8.75371,1.525183 -12.5777,4.506591 -12.5777,9.915042 0,3.953578 2.15455,6.310986 5.76851,6.310986 4.79421,0 6.80919,-3.051042 6.80919,-10.261859 z m 10.00715,18.58276 c -1.59897,0.345465 -2.63899,0.483381 -3.82467,0.483381 -3.40324,0 -4.93175,-1.73138 -5.34843,-5.891155 -2.50281,4.436281 -4.93447,6.032451 -9.38247,6.032451 -5.69533,0 -9.66025,-3.674367 -9.66025,-8.944902 0,-4.232113 2.5028,-7.279774 7.92306,-9.501972 3.19795,-1.314929 6.18519,-2.076169 10.28561,-2.562253 v -4.162479 c 0,-2.633916 -0.28049,-3.953578 -1.1125,-4.992 -0.97294,-1.248676 -2.64035,-1.941634 -4.65533,-1.941634 -3.40663,0 -5.76579,1.663775 -5.76579,4.091493 v 0.553014 c 0.0677,0.486085 0.0677,0.832225 0.0677,1.108733 0,1.943661 -0.97158,2.982084 -2.84834,2.982084 -1.45941,0 -2.29413,-0.831549 -2.29413,-2.358084 0,-4.435606 5.28136,-8.249916 11.39745,-8.249916 3.89038,0 7.50299,1.594817 9.24085,4.159775 1.11116,1.595493 1.53055,3.675042 1.53055,7.281802 v 14.145127 c 0,4.716845 0.62197,6.172395 2.71013,6.172395 0.5549,0 0.90382,-0.06896 1.73651,-0.208902 v 1.803042 z"
		   id="Fill-17"
		   fill="#ffffff" />
		<path
		   d="m 568.63839,19.101972 c 0.69515,-0.763268 1.11183,-1.458254 1.11183,-1.94231 0,-1.039775 -1.11183,-1.525183 -3.75149,-1.663099 v -1.386591 c 2.77991,0.277183 4.37753,0.346141 6.5314,0.346141 2.15456,0 3.82061,-0.06896 6.88034,-0.346141 v 1.386591 c -3.54552,0.276507 -4.58824,0.830198 -6.94877,3.258592 l -6.67098,7.005972 9.7978,16.361915 c 1.80629,2.981409 2.84766,3.606761 6.25294,3.744676 v 1.386592 c -2.29345,-0.208226 -3.40528,-0.276507 -4.72172,-0.276507 -1.32187,0 -2.43505,0.06828 -4.58961,0.276507 l -10.2829,-18.168338 -4.86468,4.994704 v 8.042366 c 0,2.981409 0.69447,3.536451 5.00222,3.744676 v 1.386592 c -3.68442,-0.347493 -5.48936,-0.418479 -7.71099,-0.418479 -2.2948,0 -4.03335,0.07099 -7.7137,0.418479 v -1.386592 c 4.30775,-0.208225 5.00086,-0.763267 5.00086,-3.744676 V 7.1067042 c 0,-3.5371267 -0.55422,-4.0225352 -4.93311,-4.0225352 v -1.248 c 3.40595,-0.2771831 7.01855,-0.90118309 10.41976,-1.80236618 V 30.957972 l 11.1908,-11.856"
		   id="Fill-18"
		   fill="#ffffff" />
		<path
		   d="m 509.71614,15.14907 c 3.89175,-0.554366 6.87695,-1.178366 9.1704,-2.079549 0.35028,1.17769 0.62468,3.466141 0.76629,6.032451 2.57191,-3.744676 5.34979,-5.409127 9.38043,-5.409127 3.68306,0 6.88101,1.664451 8.61482,4.507268 1.04543,1.665126 1.52986,4.020507 1.52986,7.281802 v 16.641127 c 0,2.981409 0.76494,3.536451 5.00222,3.744676 v 1.386592 c -3.47506,-0.347493 -5.21157,-0.418479 -7.64527,-0.418479 -2.29141,0 -4.09907,0.07099 -7.50163,0.418479 v -1.386592 c 3.68306,-0.137915 4.58553,-0.834253 4.58553,-3.60676 V 25.273014 c 0,-3.19031 -0.27914,-4.715493 -1.11183,-6.033803 -1.04272,-1.595493 -2.84766,-2.42569 -5.07471,-2.42569 -2.42963,0 -4.58418,1.108732 -5.90469,2.980732 -0.97091,1.317634 -1.32187,2.842141 -1.32187,5.755268 v 16.711437 c 0,2.772507 0.90247,3.468845 4.51643,3.60676 v 1.386592 c -3.40121,-0.347493 -5.2109,-0.418479 -7.50163,-0.418479 -2.36527,0 -4.10111,0.07099 -7.57346,0.418479 v -1.386592 c 4.30572,-0.208225 5.00087,-0.763267 5.00087,-3.744676 V 20.696113 c 0,-3.952226 -0.27779,-4.228057 -4.02725,-4.299043 h -0.90451 v -1.248"
		   id="Fill-19"
		   fill="#ffffff" />
	  </g>
	</g>
  </g>
</svg>