<?xml version="1.0" encoding="UTF-8"?>
<svg class="footer-brands-logo__financial"
   viewBox="0 0 147.54024 36"
   version="1.1"
   id="svg46"
   xmlns:xlink="http://www.w3.org/1999/xlink"
   xmlns="http://www.w3.org/2000/svg"
   xmlns:svg="http://www.w3.org/2000/svg"
   >
  <defs
	 id="defs5">
	<polygon
	   id="path-1"
	   points="24.933717,-2.3966414e-14 24.933717,17.784595 0,17.784595 0,-2.3966414e-14 " />
  </defs>
  <rect
	 id="Rectangle-Copy-10"
	 fill-opacity="0.2"
	 fill="#ff0000"
	 opacity="0"
	 x="0"
	 y="1.70924e-09"
	 width="73.599998"
	 height="46"
	 style="fill-rule:evenodd;stroke:none;stroke-width:1" />
  <g
	 id="Group"
	 transform="matrix(0.78554706,0,0,0.78554706,0,-0.12344558)"
	 style="fill:none;fill-rule:evenodd;stroke:none;stroke-width:1">
	<g
	   id="Mercedes-Benz_Financial_Services_Label"
	   transform="translate(0,0.157146)">
	  <polygon
		 id="Fill-1"
		 fill="#ffffff"
		 points="103.8962,9.8268432 98.199081,9.8268432 98.199081,11.146422 103.8962,11.146422 " />
	  <path
		 d="M 3.4671968,1.8206054 2.9573369,15.06786 c 0,0.07658 0,0.153416 0,0.23 0,1.122897 0.3312972,1.352648 2.1156829,1.479956 v 0.612671 C 3.7731625,17.288043 3.2633025,17.262432 2.5495482,17.262432 1.8355456,17.262432 1.3256856,17.288043 0,17.390487 V 16.777816 C 1.7846341,16.650508 2.0394399,16.446119 2.0905997,15.06786 L 2.6257913,2.5354703 c 0,-0.050973 0,-0.101946 0,-0.1529189 0,-1.1743676 -0.3568772,-1.42948113 -2.11568298,-1.53167572 V 0.21259459 C 1.504,0.28942703 1.8867054,0.31503784 2.6004597,0.31503784 c 0.9432285,0 1.4528402,-0.0256108 2.4216486,-0.12780541 L 9.7638309,13.102789 14.582293,0.18723243 c 1.147123,0.1021946 1.682811,0.12780541 2.447477,0.12780541 0.637263,0 1.045052,-0.0256108 2.01386,-0.10244325 V 0.85087568 C 17.310156,0.95307027 16.927699,1.2081838 16.927699,2.3569405 V 2.5354703 L 17.208084,15.06786 c 0.02583,1.378259 0.254806,1.582648 2.0906,1.709956 v 0.612671 c -1.606319,-0.152919 -2.218002,-0.203892 -3.186811,-0.203892 -0.96856,0 -1.580243,0.05097 -3.186563,0.203892 v -0.612671 c 1.733475,-0.102194 2.115932,-0.38267 2.115932,-1.581902 V 15.06786 L 14.811768,1.8462162 10.605485,13.230097 l -0.305966,0.843168 -0.3571253,0.944119 -0.3312973,0.96973 -0.280634,0.841675 H 8.9482536 L 8.6678679,16.012476 7.9538653,14.021297 7.6481479,13.128151 3.4671968,1.8206054"
		 id="Fill-2"
		 fill="#ffffff" />
	  <path
		 d="m 22.610663,10.065297 c 0.255054,-2.9355457 1.224111,-4.4413619 2.855514,-4.4413619 1.656983,0 2.498388,1.4292325 2.651123,4.4413619 z m 3.314462,6.687654 c -2.320074,0 -3.339545,-1.787038 -3.365125,-5.768897 h 7.596988 c -0.05091,-3.9308864 -1.656983,-6.0240108 -4.665231,-6.0240108 -3.059408,0 -4.971445,2.4762919 -4.971445,6.4066808 0,3.931136 1.912037,6.2284 5.200671,6.2284 2.498388,0 4.130039,-1.557038 4.461337,-4.186746 h -1.019472 c -0.306214,2.170206 -1.427757,3.344573 -3.237723,3.344573 z"
		 id="Fill-3"
		 fill="#ffffff" />
	  <path
		 d="M 31.674647,5.9046595 V 5.4451568 C 33.127984,5.3176 33.994721,5.1646811 35.040021,4.8580973 c 0.127403,0.9443676 0.178315,1.3526486 0.229226,2.1187351 v 0.2807244 c 0.56102,-1.4550919 1.657231,-2.2975136 2.982917,-2.2975136 1.274526,0 2.218002,0.8424217 2.218002,2.0675136 0,0.740227 -0.433368,1.2253405 -1.070879,1.2253405 -0.586352,0 -1.045052,-0.3575568 -1.045052,-0.8675351 0,-0.05147 0.02533,-0.1531676 0.05066,-0.2556109 l 0.05116,-0.2551135 c 0,-0.076584 0,-0.1531675 0,-0.2297513 0,-0.3573081 -0.305966,-0.6126703 -0.764914,-0.6126703 -1.325437,0 -2.166843,1.6082595 -2.166843,4.1350268 V 15.502 c 0,1.097535 0.254806,1.301427 1.809966,1.377762 v 0.510725 c -1.401929,-0.128055 -1.937617,-0.152919 -2.829686,-0.152919 -0.917897,0 -1.453337,0.02486 -2.855265,0.152919 v -0.510725 c 1.554911,-0.07634 1.835545,-0.280227 1.835545,-1.377762 V 7.1553622 C 33.459281,6.057827 33.331879,5.9302703 32.006193,5.9046595 h -0.331546"
		 id="Fill-4"
		 fill="#ffffff" />
	  <path
		 d="m 50.222077,4.7307892 v 4.2111135 h -0.56102 C 49.202108,6.7214703 48.259128,5.6495459 46.703968,5.6495459 c -1.912037,0 -3.033828,2.0672649 -3.033828,5.7171781 0,3.573827 0.994388,5.386227 2.957337,5.386227 1.580491,0 2.523968,-1.123891 2.829686,-3.369438 h 1.045299 c -0.331297,2.730909 -1.784385,4.211611 -4.078879,4.211611 -2.957337,0 -4.971197,-2.501654 -4.971197,-6.2284 0,-3.8025835 2.039191,-6.4066808 5.047688,-6.4066808 1.095963,0 1.784386,0.280973 2.600211,1.072173 l 0.688423,-1.301427 h 0.433369"
		 id="Fill-5"
		 fill="#ffffff" />
	  <path
		 d="m 54.408491,10.065297 c 0.255055,-2.9355457 1.223863,-4.4413619 2.855514,-4.4413619 1.656983,0 2.49814,1.4292325 2.651371,4.4413619 z m 3.314463,6.687654 c -2.320074,0 -3.339794,-1.787038 -3.365126,-5.768897 h 7.596988 c -0.05091,-3.9308864 -1.656982,-6.0240108 -4.665479,-6.0240108 -3.05916,0 -4.971197,2.4762919 -4.971197,6.4066808 0,3.931136 1.912037,6.2284 5.200671,6.2284 2.498637,0 4.13004,-1.557038 4.461337,-4.186746 h -1.01972 c -0.305966,2.170206 -1.427509,3.344573 -3.237474,3.344573 z"
		 id="Fill-6"
		 fill="#ffffff" />
	  <path
		 d="m 69.014875,16.905373 c -1.835546,0 -2.804106,-1.913849 -2.804106,-5.563513 0,-3.7013843 0.892069,-5.5137843 2.727366,-5.5137843 1.886954,0 2.855514,1.9397081 2.855514,5.6920653 0,3.547719 -0.943477,5.385232 -2.778774,5.385232 z m 4.792882,-2.169211 V 0 C 72.532983,0.34015135 71.385612,0.54454054 69.958103,0.69795676 V 1.1318486 c 1.606071,0 1.809966,0.1785298 1.809966,1.5055676 v 4.466973 c -0.94298,-1.531427 -1.682315,-1.9909297 -3.05916,-1.9909297 -2.727863,0 -4.6399,2.5779891 -4.6399,6.2532645 0,3.675276 1.937617,6.254011 4.716143,6.254011 1.453337,0 2.447725,-0.663892 3.161479,-2.093621 0.102072,0.969978 0.102072,1.072421 0.356878,2.042151 1.0453,-0.331697 1.478668,-0.433146 2.982668,-0.612422 l 0.382457,-0.05147 V 16.47173 c -1.708143,-0.05097 -1.860877,-0.178779 -1.860877,-1.735568 z"
		 id="Fill-7"
		 fill="#ffffff" />
	  <path
		 d="m 78.724565,10.065297 c 0.255055,-2.9355457 1.223615,-4.4413619 2.855514,-4.4413619 1.656983,0 2.497892,1.4292325 2.651123,4.4413619 z m 3.314214,6.687654 c -2.319825,0 -3.339545,-1.787038 -3.365125,-5.768897 h 7.59674 C 86.21973,7.0531676 84.613659,4.9600432 81.605163,4.9600432 c -3.058912,0 -4.970949,2.4762919 -4.970949,6.4066808 0,3.931136 1.912037,6.2284 5.200423,6.2284 2.498636,0 4.130039,-1.557038 4.461337,-4.186746 h -1.01972 c -0.305718,2.170206 -1.427509,3.344573 -3.237475,3.344573 z"
		 id="Fill-8"
		 fill="#ffffff" />
	  <path
		 d="M 88.434753,17.620735 V 13.3584 l 0.560275,-0.02586 c 0.459445,2.322875 1.529828,3.445275 3.314214,3.445275 1.504496,0 2.626039,-0.994594 2.626039,-2.297265 0,-0.867783 -0.484776,-1.454843 -1.733474,-2.016291 L 92.232502,12.030616 91.060048,11.49453 C 89.19917,10.626497 88.612819,9.9116324 88.612819,8.4316757 c 0,-2.0165406 1.580243,-3.3948 3.824074,-3.3948 0.994388,0 1.733474,0.2297513 2.600211,0.8165621 L 95.470721,4.8071243 H 95.92967 V 8.763373 h -0.5866 C 95.113596,6.7214703 94.272687,5.7514919 92.666367,5.7514919 c -1.351265,0 -2.396069,0.9190054 -2.396069,2.1187351 0,1.0207027 0.381713,1.3526487 2.702035,2.3736 l 1.070631,0.459503 c 1.937617,0.84267 2.625792,1.658984 2.625792,3.1648 0,2.144346 -1.707895,3.675524 -4.10446,3.675524 -1.172455,0 -2.090351,-0.306086 -3.05916,-1.071924 l -0.611931,1.149005 h -0.458452"
		 id="Fill-9"
		 fill="#ffffff" />
	  <path
		 d="m 110.845,8.814346 c 1.35102,0 2.11643,0.23 2.70179,0.8170594 0.58635,0.5868106 0.91864,1.6848436 0.91864,2.9096866 0,2.552378 -1.27552,3.981611 -3.54369,3.981611 h -0.9179 c -1.35126,0 -1.58074,-0.203892 -1.58074,-1.326789 V 8.814346 Z m -2.4219,-7.733719 h 2.16685 c 2.14151,0 3.08498,1.0465622 3.08498,3.4201622 0,1.1741189 -0.28038,2.0165405 -0.84115,2.6801838 -0.56177,0.6380324 -1.24945,0.842173 -2.67745,0.842173 h -1.73323 z m 7.52075,3.3689406 c 0,-1.3270379 -0.56102,-2.5011568 -1.52983,-3.2413838 -0.86723,-0.6382811 -1.86063,-0.91875677 -3.51811,-0.91875677 h -6.70492 v 0.63803243 c 1.83555,0.10219454 2.0901,0.30608644 2.0901,1.68459454 v 12.37947 c 0,1.37826 -0.20364,1.557038 -2.0901,1.709957 v 0.612422 h 6.44987 c 1.8872,0 2.90593,-0.229752 3.97705,-0.893146 1.27453,-0.816811 2.11618,-2.373849 2.11618,-3.98186 0,-1.378259 -0.58635,-2.6292105 -1.58074,-3.394551 -0.53544,-0.4085298 -1.0967,-0.6382811 -2.01411,-0.8170595 1.83654,-0.6887568 2.80461,-1.9906811 2.80461,-3.7777189 z"
		 id="Fill-10"
		 fill="#ffffff" />
	  <path
		 d="m 120.89493,10.065297 c 0.25555,-2.9355457 1.22436,-4.4413619 2.85551,-4.4413619 1.65698,0 2.49864,1.4292325 2.65187,4.4413619 z m 3.31446,6.687654 c -2.32007,0 -3.34029,-1.787038 -3.36537,-5.768897 h 7.59698 c -0.0509,-3.9308864 -1.65698,-6.0240108 -4.66498,-6.0240108 -3.05916,0 -4.9707,2.4762919 -4.9707,6.4066808 0,3.931136 1.91154,6.2284 5.20017,6.2284 2.49864,0 4.1293,-1.557038 4.46159,-4.186746 h -1.01997 c -0.30621,2.170206 -1.42751,3.344573 -3.23772,3.344573 z"
		 id="Fill-11"
		 fill="#ffffff" />
	  <path
		 d="M 129.79078,6.006854 V 5.5729622 c 1.47892,-0.2043892 2.3459,-0.4082811 3.36537,-0.7658379 0.12765,0.5870595 0.20365,1.2507027 0.25506,2.2204325 0.9174,-1.3780109 1.9627,-1.9906811 3.44112,-1.9906811 1.52983,0 2.85551,0.7912 3.36537,2.041654 0.25456,0.6129189 0.38271,1.3275352 0.38271,2.2972649 V 15.502 c 0,1.097535 0.25455,1.301427 1.80971,1.377762 v 0.510725 c -1.35101,-0.128055 -1.86063,-0.152919 -2.77852,-0.152919 -0.94348,0 -1.45309,0.02486 -2.77927,0.152919 v -0.510725 c 1.37709,-0.05097 1.70839,-0.306086 1.70839,-1.326789 V 9.2992108 c 0,-2.2206811 -0.6626,-3.113827 -2.2945,-3.113827 -1.73347,0 -2.65162,1.0975351 -2.65162,3.1904108 v 6.1771784 c 0,1.020703 0.3313,1.275816 1.65748,1.326789 v 0.510725 c -1.32618,-0.128055 -1.83604,-0.152919 -2.75319,-0.152919 -0.89257,0 -1.4285,0.02486 -2.75319,0.152919 v -0.510725 c 1.55491,-0.07634 1.80971,-0.280227 1.80971,-1.377762 V 7.2321946 c -0.0253,-1.0468108 -0.17856,-1.1999784 -1.45333,-1.1999784 -0.076,0 -0.20315,-0.025362 -0.3313,-0.025362"
		 id="Fill-12"
		 fill="#ffffff" />
	  <path
		 d="M 143.40104,17.313903 150.3101,5.9302703 h -3.1359 c -1.65699,0 -2.06527,0.3573081 -2.98242,2.6543243 h -0.51036 l 0.58685,-3.3179676 h 8.76944 l -6.9339,11.383881 h 2.98267 c 1.73348,0 2.44698,-0.689254 3.2119,-3.011881 h 0.53494 l -0.6621,3.675276 h -8.77018"
		 id="Fill-13"
		 fill="#ffffff" />
	  <path
		 d="m 4.2884861,43.20494 c 0,1.382984 0.2046394,1.56226 2.1228851,1.716173 v 0.614411 c -1.5094637,-0.153416 -2.251033,-0.204886 -3.1974901,-0.204886 -0.9722853,0 -1.714103,0.05147 -3.19773843,0.204886 V 44.921113 C 1.9090568,44.741838 2.1139445,44.587924 2.1139445,43.20494 V 30.707113 c 0,-1.382983 -0.2560475,-1.588118 -2.09780183,-1.715924 V 28.37653 H 11.143657 l 0.460438,3.841373 H 11.015509 C 10.376259,29.784876 9.7879207,29.170465 7.9970779,29.170465 H 4.2884861 v 7.017362 h 3.6576803 c 1.1510965,0 1.4324756,-0.384162 1.508967,-2.100086 H 10.09488 v 5.019718 H 9.4551334 C 9.4042219,37.417395 9.0463514,36.981513 7.8180185,36.981513 H 4.2884861 v 6.223427"
		 id="Fill-14"
		 fill="#ffffff" />
	  <path
		 d="m 17.203366,29.759762 c 0,0.793687 -0.613918,1.408346 -1.407144,1.408346 -0.767149,0 -1.380819,-0.64027 -1.380819,-1.408346 0,-0.768573 0.61367,-1.383232 1.380819,-1.383232 0.793226,0 1.407144,0.614659 1.407144,1.383232 z m -0.281131,13.880811 c 0,1.101265 0.255551,1.305903 1.841754,1.382984 v 0.511967 c -1.381564,-0.127805 -2.046642,-0.153416 -2.865199,-0.153416 -0.818309,0 -1.483387,0.02561 -2.864951,0.153416 v -0.511967 c 1.585707,-0.07708 1.841754,-0.281719 1.841754,-1.382984 v -8.093016 c 0,-1.331762 -0.178811,-1.485676 -1.815926,-1.511038 v -0.435384 c 1.278499,-0.102443 2.736555,-0.358551 3.862568,-0.665881 z"
		 id="Fill-15"
		 fill="#ffffff" />
	  <path
		 d="m 20.196217,33.677719 c 1.432475,-0.204638 2.532163,-0.435135 3.376549,-0.768076 0.127651,0.435384 0.229971,1.280541 0.281379,2.227892 0.946209,-1.382735 1.969654,-1.997395 3.453041,-1.997395 1.355736,0 2.532661,0.61466 3.172407,1.664952 0.383699,0.614162 0.562758,1.485178 0.562758,2.689135 v 6.146346 c 0,1.101265 0.281379,1.305903 1.841755,1.382984 v 0.511967 c -1.278996,-0.127805 -1.918246,-0.153416 -2.813792,-0.153416 -0.844634,0 -1.509712,0.02561 -2.763128,0.153416 v -0.511967 c 1.355736,-0.05147 1.688523,-0.30733 1.688523,-1.332011 v -6.274151 c 0,-1.178346 -0.102319,-1.741535 -0.409527,-2.22839 -0.38345,-0.589048 -1.048528,-0.896378 -1.867334,-0.896378 -0.895049,0 -1.688026,0.409773 -2.174045,1.101265 -0.358367,0.486605 -0.486018,1.050043 -0.486018,2.126194 v 6.17146 c 0,1.024681 0.33229,1.280541 1.662694,1.332011 v 0.511967 c -1.253416,-0.127805 -1.918742,-0.153416 -2.762879,-0.153416 -0.869718,0 -1.508967,0.02561 -2.787963,0.153416 v -0.511967 c 1.585458,-0.07708 1.841754,-0.281719 1.841754,-1.382984 v -7.913741 c 0,-1.459816 -0.10232,-1.562508 -1.483884,-1.58787 h -0.33229 v -0.461243"
		 id="Fill-16"
		 fill="#ffffff" />
	  <path
		 d="m 40.813384,38.59574 c -3.223318,0.562692 -4.629965,1.664206 -4.629965,3.6616 0,1.459817 0.792729,2.330584 2.123133,2.330584 1.765263,0 2.506832,-1.126627 2.506832,-3.7904 z m 3.683509,6.862952 c -0.588338,0.128303 -0.972037,0.179276 -1.407144,0.179276 -1.253416,0 -1.816174,-0.640022 -1.969406,-2.176671 -0.921125,1.639092 -1.816422,2.228141 -3.453537,2.228141 -2.097305,0 -3.555361,-1.357373 -3.555361,-3.303795 0,-1.562259 0.920629,-2.689632 2.916111,-3.508681 1.176677,-0.486357 2.276365,-0.767827 3.785828,-0.9476 v -1.536897 c 0,-0.973211 -0.102319,-1.459816 -0.409527,-1.843978 -0.35787,-0.460746 -0.972037,-0.716606 -1.713606,-0.716606 -1.253416,0 -2.123133,0.614162 -2.123133,1.510789 v 0.204887 c 0.02533,0.179275 0.02533,0.307329 0.02533,0.409773 0,0.717102 -0.358119,1.101265 -1.048777,1.101265 -0.53693,0 -0.843889,-0.307081 -0.843889,-0.870768 0,-1.63934 1.944074,-3.047687 4.195107,-3.047687 1.432476,0 2.762383,0.589049 3.40213,1.536649 0.40903,0.589049 0.562758,1.357373 0.562758,2.689135 v 5.224606 c 0,1.741535 0.229971,2.279113 0.997865,2.279113 0.204143,0 0.332291,-0.02561 0.63925,-0.07658 v 0.665633 z"
		 id="Fill-17"
		 fill="#ffffff" />
	  <path
		 d="m 45.8268,33.677719 c 1.432476,-0.204638 2.532164,-0.435135 3.37655,-0.768076 0.127651,0.435384 0.229971,1.280541 0.281379,2.227892 0.946209,-1.382735 1.969902,-1.997395 3.453041,-1.997395 1.355736,0 2.532412,0.61466 3.172407,1.664952 0.383699,0.614162 0.56251,1.485178 0.56251,2.689135 v 6.146346 c 0,1.101265 0.281379,1.305903 1.841754,1.382984 v 0.511967 c -1.278996,-0.127805 -1.918246,-0.153416 -2.813791,-0.153416 -0.844386,0 -1.509464,0.02561 -2.76288,0.153416 v -0.511967 c 1.355736,-0.05147 1.688523,-0.30733 1.688523,-1.332011 v -6.274151 c 0,-1.178346 -0.102319,-1.741535 -0.409279,-2.22839 -0.383698,-0.589048 -1.048776,-0.896378 -1.867582,-0.896378 -0.894801,0 -1.688027,0.409773 -2.174045,1.101265 -0.358367,0.486605 -0.486018,1.050043 -0.486018,2.126194 v 6.17146 c 0,1.024681 0.33229,1.280541 1.662694,1.332011 v 0.511967 c -1.253167,-0.127805 -1.918742,-0.153416 -2.762879,-0.153416 -0.869718,0 -1.508967,0.02561 -2.787963,0.153416 v -0.511967 c 1.585706,-0.07708 1.841754,-0.281719 1.841754,-1.382984 v -7.913741 c 0,-1.459816 -0.10232,-1.562508 -1.483884,-1.58787 H 45.8268 v -0.461243"
		 id="Fill-18"
		 fill="#ffffff" />
	  <path
		 d="M 68.439451,37.058595 H 67.876692 C 67.672053,36.162465 67.543905,35.752443 67.262526,35.240227 66.776507,34.318486 65.88121,33.7548 64.909173,33.7548 c -1.944074,0 -3.044507,2.100086 -3.044507,5.736822 0,3.585513 0.998113,5.403881 2.967767,5.403881 1.586204,0 2.532412,-1.126876 2.83962,-3.380627 h 1.022948 c -0.306959,2.740356 -1.765014,4.225535 -4.067207,4.225535 -2.992851,0 -4.988333,-2.50986 -4.988333,-6.223427 0,-3.841124 2.071974,-6.453676 5.065073,-6.453676 1.074356,0 1.790843,0.30733 2.608903,1.075654 l 0.665078,-1.306151 h 0.460936 v 4.225784"
		 id="Fill-19"
		 fill="#ffffff" />
	  <path
		 d="m 74.475815,29.759762 c 0,0.793687 -0.613918,1.408346 -1.407144,1.408346 -0.767398,0 -1.380819,-0.64027 -1.380819,-1.408346 0,-0.768573 0.613421,-1.383232 1.380819,-1.383232 0.793226,0 1.407144,0.614659 1.407144,1.383232 z m -0.281379,13.880811 c 0,1.101265 0.255799,1.305903 1.841754,1.382984 v 0.511967 c -1.381315,-0.127805 -2.046393,-0.153416 -2.865199,-0.153416 -0.818309,0 -1.483139,0.02561 -2.864703,0.153416 v -0.511967 c 1.585707,-0.07708 1.841754,-0.281719 1.841754,-1.382984 v -8.093016 c 0,-1.331762 -0.178811,-1.485676 -1.815926,-1.511038 v -0.435384 c 1.2785,-0.102443 2.736555,-0.358551 3.86232,-0.665881 z"
		 id="Fill-20"
		 fill="#ffffff" />
	  <path
		 d="m 84.067789,38.59574 c -3.222574,0.562692 -4.629718,1.664206 -4.629718,3.6616 0,1.459817 0.792978,2.330584 2.123134,2.330584 1.765014,0 2.506584,-1.126627 2.506584,-3.7904 z m 3.683508,6.862952 c -0.588338,0.128303 -0.972037,0.179276 -1.406647,0.179276 -1.253416,0 -1.815926,-0.640022 -1.969654,-2.176671 -0.920629,1.639092 -1.816174,2.228141 -3.453289,2.228141 -2.097802,0 -3.555858,-1.357373 -3.555858,-3.303795 0,-1.562259 0.921126,-2.689632 2.916111,-3.508681 1.176677,-0.486357 2.276862,-0.767827 3.785829,-0.9476 v -1.536897 c 0,-0.973211 -0.10232,-1.459816 -0.408782,-1.843978 -0.358616,-0.460746 -0.972037,-0.716606 -1.714352,-0.716606 -1.253168,0 -2.122885,0.614162 -2.122885,1.510789 v 0.204887 c 0.02558,0.179275 0.02558,0.307329 0.02558,0.409773 0,0.717102 -0.35787,1.101265 -1.048528,1.101265 -0.537675,0 -0.844634,-0.307081 -0.844634,-0.870768 0,-1.63934 1.944074,-3.047687 4.195355,-3.047687 1.432227,0 2.76288,0.589049 3.402129,1.536649 0.409279,0.589049 0.562759,1.357373 0.562759,2.689135 v 5.224606 c 0,1.741535 0.230219,2.279113 0.997617,2.279113 0.204639,0 0.332787,-0.02561 0.639249,-0.07658 v 0.665633 z"
		 id="Fill-21"
		 fill="#ffffff" />
	  <g
		 id="Group-25"
		 transform="translate(88.756365,28.043341)">
		<mask
		   id="mask-2"
		   fill="#ffffff">
		  <use
			 xlink:href="#path-1"
			 id="use29"
			 x="0"
			 y="0"
			 width="100%"
			 height="100%" />
		</mask>
		<g
		   id="Clip-23" />
		<path
		   d="m 3.888148,15.597232 c 0,1.101265 0.2557992,1.305903 1.8427476,1.382984 v 0.511968 C 4.3485865,17.364378 3.6835086,17.338768 2.8647028,17.338768 2.0463937,17.338768 1.3815641,17.364378 0,17.492184 v -0.511968 c 1.5862034,-0.07708 1.8417543,-0.281719 1.8417543,-1.382984 V 2.663773 c 0,-1.3064 -0.2046394,-1.4856757 -1.81592603,-1.4856757 V 0.71735135 C 1.2792444,0.61490811 2.7114716,0.3588 3.888148,0.05147027 V 15.597232"
		   id="Fill-22"
		   fill="#ffffff"
		   mask="url(#mask-2)" />
		<path
		   d="m 14.98288,12.241968 c 0.511598,3.047686 2.046393,4.610194 4.527894,4.610194 2.071725,0 3.529781,-1.383232 3.529781,-3.380627 0,-0.99907 -0.408782,-1.843978 -1.151097,-2.407416 C 21.37786,10.67946 21.096481,10.52654 19.434283,9.655773 16.978362,8.4005946 16.364195,8.0164324 15.750277,7.4273838 15.034288,6.7102811 14.676169,5.7885405 14.676169,4.6101946 c 0,-2.6891351 1.969406,-4.50775136 4.885517,-4.50775136 1.407144,0 2.327772,0.3588 3.325638,1.33201076 L 23.654721,0 h 0.460191 V 4.7126378 H 23.50149 C 22.912904,2.0747243 21.736227,0.87076757 19.740745,0.87076757 c -1.815926,0 -3.222822,1.35737293 -3.222822,3.12476753 0,0.9988217 0.460439,1.7412865 1.458304,2.3561946 0.587842,0.3585514 0.613422,0.3841622 2.481004,1.3317622 1.637115,0.8195459 2.276365,1.1780973 2.916111,1.6905622 1.022949,0.7683239 1.560375,1.9203139 1.560375,3.3801299 0,2.894021 -2.097802,4.891913 -5.115736,4.891913 -1.586203,0 -2.814039,-0.435632 -4.042124,-1.485675 l -0.920628,1.639091 h -0.460687 v -5.557545 h 0.588338"
		   id="Fill-24"
		   fill="#ffffff"
		   mask="url(#mask-2)" />
	  </g>
	  <path
		 d="m 123.027,38.211081 c -0.12815,-2.996465 -0.99786,-4.430919 -2.63473,-4.430919 -1.66294,0 -2.60915,1.485676 -2.86545,4.430919 z m 2.07173,3.303795 c -0.30721,2.637913 -1.99524,4.199924 -4.55323,4.199924 -3.14608,0 -5.14156,-2.432778 -5.14156,-6.325622 0,-3.739178 2.02056,-6.274648 5.01391,-6.274648 2.89053,0 4.57856,2.177167 4.65555,6.018292 h -7.59749 c 0.0509,1.920562 0.17906,2.8428 0.48602,3.662594 0.53693,1.382735 1.50921,2.074227 2.89053,2.074227 1.79084,0 2.94194,-1.178097 3.2489,-3.354767 z"
		 id="Fill-26"
		 fill="#ffffff" />
	  <path
		 d="m 126.73559,33.575276 c 1.35574,-0.127557 2.45592,-0.332692 3.37655,-0.614162 0.15323,0.998572 0.20464,1.408345 0.23047,2.432778 0.58834,-1.485427 1.66269,-2.330584 2.99285,-2.330584 1.30433,0 2.22545,0.871016 2.22545,2.074227 0,0.742962 -0.40952,1.229568 -1.0746,1.229568 -0.58834,0 -1.04853,-0.3588 -1.04853,-0.845406 0,-0.127805 0,-0.127805 0.10232,-0.537578 0.0251,-0.07658 0.0251,-0.153665 0.0251,-0.230497 0,-0.358552 -0.33204,-0.61466 -0.76715,-0.61466 -1.35573,0 -2.19987,1.613481 -2.19987,4.1492 v 5.352411 c 0,1.101265 0.28138,1.305903 1.84176,1.382984 v 0.511967 c -1.35574,-0.127805 -2.02057,-0.153416 -2.86471,-0.153416 -0.86971,0 -1.53529,0.02561 -2.8652,0.153416 v -0.511967 c 1.56038,-0.07708 1.84176,-0.281719 1.84176,-1.382984 V 35.67586 c 0,-1.588119 -0.0258,-1.639341 -1.81618,-1.664952 v -0.435632"
		 id="Fill-27"
		 fill="#ffffff" />
	  <path
		 d="m 142.36368,45.76627 c -0.35787,-0.9476 -0.58834,-1.613481 -0.74157,-1.997643 l -0.25604,-0.691492 -2.96728,-8.118627 c -0.35836,-0.921989 -0.63974,-1.101265 -1.91824,-1.152486 v -0.512465 c 1.50897,0.128302 2.07172,0.154162 2.73655,0.154162 0.74232,0 1.22834,-0.02586 2.60916,-0.154162 v 0.512465 c -1.09969,0.05122 -1.38082,0.179275 -1.38082,0.589048 0,0.153417 0,0.153417 0.15323,0.589049 l 2.71147,7.785686 2.78796,-7.708854 c 0.17956,-0.435383 0.20489,-0.589048 0.20489,-0.742465 0,-0.3588 -0.20489,-0.461243 -1.27924,-0.512464 v -0.512465 c 1.30482,0.07708 1.63761,0.102692 1.99548,0.102692 0.30721,0 0.71599,-0.02561 1.89266,-0.102692 v 0.512465 c -1.20176,0.05122 -1.53454,0.281719 -1.91824,1.254929 l -2.94194,7.939103 c -0.10182,0.30733 -0.28138,0.793935 -0.53693,1.434454 -0.10232,0.281719 -0.15323,0.409524 -0.48602,1.331762 h -0.66508"
		 id="Fill-28"
		 fill="#ffffff" />
	  <path
		 d="m 154.10462,29.759762 c 0,0.793687 -0.61367,1.408346 -1.40665,1.408346 -0.7674,0 -1.38156,-0.64027 -1.38156,-1.408346 0,-0.768573 0.61416,-1.383232 1.38156,-1.383232 0.79298,0 1.40665,0.614659 1.40665,1.383232 z m -0.28138,13.880811 c 0,1.101265 0.25605,1.305903 1.84175,1.382984 v 0.511967 c -1.38106,-0.127805 -2.04639,-0.153416 -2.8647,-0.153416 -0.81881,0 -1.48388,0.02561 -2.8652,0.153416 v -0.511967 c 1.58596,-0.07708 1.84175,-0.281719 1.84175,-1.382984 v -8.093016 c 0,-1.331762 -0.17905,-1.485676 -1.81617,-1.511038 v -0.435384 c 1.279,-0.102443 2.7373,-0.358551 3.86257,-0.665881 z"
		 id="Fill-29"
		 fill="#ffffff" />
	  <path
		 d="m 165.76856,37.058595 h -0.56251 c -0.20463,-0.89613 -0.33278,-1.306152 -0.61416,-1.818368 -0.48602,-0.921741 -1.38082,-1.485427 -2.35286,-1.485427 -1.94432,0 -3.04426,2.100086 -3.04426,5.736822 0,3.585513 0.99762,5.403881 2.96703,5.403881 1.5862,0 2.53241,-1.126876 2.83962,-3.380627 h 1.02344 c -0.30721,2.740356 -1.76526,4.225535 -4.06721,4.225535 -2.99334,0 -4.98833,-2.50986 -4.98833,-6.223427 0,-3.841124 2.07222,-6.453676 5.06482,-6.453676 1.07436,0 1.79035,0.30733 2.60916,1.075654 l 0.66507,-1.306151 h 0.46019 v 4.225784"
		 id="Fill-30"
		 fill="#ffffff" />
	  <path
		 d="m 175.4636,38.211081 c -0.12814,-2.996465 -0.99786,-4.430919 -2.63498,-4.430919 -1.66269,0 -2.60915,1.485676 -2.8652,4.430919 z m 2.07148,3.303795 c -0.30696,2.637913 -1.99499,4.199924 -4.55323,4.199924 -3.14608,0 -5.14156,-2.432778 -5.14156,-6.325622 0,-3.739178 2.02081,-6.274648 5.01416,-6.274648 2.89028,0 4.57831,2.177167 4.65555,6.018292 h -7.59749 c 0.0509,1.920562 0.17906,2.8428 0.48602,3.662594 0.53693,1.382735 1.50897,2.074227 2.89053,2.074227 1.79084,0 2.94169,-1.178097 3.2489,-3.354767 z"
		 id="Fill-31"
		 fill="#ffffff" />
	  <path
		 d="m 179.58172,41.489016 h 0.56251 c 0.15323,0.819795 0.30696,1.25493 0.56276,1.793006 0.5116,0.998573 1.56038,1.639091 2.76288,1.639091 1.48314,0 2.63473,-0.998821 2.63473,-2.305221 0,-0.793687 -0.38419,-1.305903 -1.43272,-1.843979 -0.0253,-0.02536 -0.86972,-0.409524 -2.45543,-1.152486 -1.86758,-0.845157 -2.45592,-1.587622 -2.45592,-3.073049 0,-1.997891 1.56038,-3.406238 3.83674,-3.406238 0.97229,0 1.71435,0.230498 2.60915,0.819546 l 0.43511,-1.050043 h 0.43511 v 3.969427 h -0.56301 c -0.22997,-2.048616 -1.09969,-3.021827 -2.68589,-3.021827 -1.35574,0 -2.40426,0.921989 -2.40426,2.100087 0,0.819546 0.38345,1.281038 1.43222,1.818616 0.35812,0.179276 0.56276,0.255859 2.3536,1.049546 1.91825,0.845405 2.60916,1.690313 2.60916,3.175989 0,2.151308 -1.71386,3.687957 -4.09304,3.687957 -1.1511,0 -2.12313,-0.333189 -3.09517,-1.050043 l -0.61392,1.126875 h -0.43461 v -4.277254"
		 id="Fill-32"
		 fill="#ffffff" />
	</g>
  </g>
</svg>
