<?xml version="1.0" encoding="UTF-8"?>
<svg class="footer-brands-logo__me"
   viewBox="0 0 96.192673 12"
   version="1.1"
   xmlns="http://www.w3.org/2000/svg"
   xmlns:svg="http://www.w3.org/2000/svg">
  <g
	 id="Desktop_XL_Height-46_Mercedes-me_logo"
	 stroke="none"
	 stroke-width="1"
	 fill="none"
	 fill-rule="evenodd"
	 transform="scale(0.24)">
	<rect
	   id="Rectangle-Copy-14"
	   fill-opacity="0.2"
	   fill="#ff0000"
	   opacity="0"
	   x="0"
	   y="4"
	   width="67.620003"
	   height="46" />
	<g
	   id="Group"
	   fill="#ffffff"
	   fill-rule="nonzero">
	  <g
		 id="mercedesme-logo-black">
		<path
		   d="m 38.217149,2.8580471 c 3.00291,0.2645671 4.406889,0.3276325 6.410664,0.3276325 1.483462,0 2.496117,-0.049829 4.485583,-0.1981025 l 0.794666,-0.060312 V 4.560044 c -4.34612,0.2515928 -5.451383,0.859241 -5.539277,3.4894722 l -0.0059,0.3713611 V 8.8746406 L 45.09633,40.970317 c 0.06415,3.390397 0.623106,4.005157 4.921355,4.338101 l 0.556992,0.04033 V 46.92 c -4.20722,-0.394543 -5.810082,-0.525289 -8.348407,-0.525289 -2.361395,0 -3.911448,0.112735 -7.490001,0.444733 L 33.873148,46.92 v -1.571251 c 4.34612,-0.248651 5.450663,-0.918797 5.538495,-3.663506 l 0.0059,-0.387293 V 40.970317 L 38.817731,7.1095783 27.794218,36.26733 l -0.80261,2.154222 -0.937034,2.419558 -0.865498,2.483393 -0.736578,2.154991 H 23.451003 L 22.71757,43.389106 21.782108,40.84111 20.845074,38.289269 20.042464,36.002763 9.0849841,7.0434366 7.7509685,40.970317 v 0.587585 c 0,2.751337 0.791874,3.408562 4.9534105,3.746567 l 0.588611,0.04428 V 46.92 C 10.149548,46.678624 8.7690594,46.604354 7.1031265,46.594357 H 6.2566901 c -1.5247122,0.0092 -2.8164557,0.07233 -5.4915936,0.268721 L 0,46.92 V 45.348749 C 4.480914,45.035505 5.2798396,44.54497 5.459024,41.396293 L 5.479133,40.970317 6.8823255,8.8746406 v -0.392236 c 0,-2.8763978 -0.8566048,-3.598168 -4.9652934,-3.885684 L 1.3363739,4.560044 V 2.9272652 c 2.605143,0.195349 3.6050651,0.2584144 5.479919,0.2584144 2.1150644,0 3.4001971,-0.046334 5.3251671,-0.2261798 L 13.164069,2.8580471 25.587629,35.938159 Z M 152.08945,12.299894 c 7.64787,0 11.83256,5.412651 12.18777,15.595132 l 0.0214,0.910817 h -19.87945 c 0.0612,10.91014 2.72946,15.811308 8.80696,15.811308 4.5465,0 7.4341,-2.970318 8.36694,-8.468957 l 0.1064,-0.700466 h 2.66823 C 163.49948,42.657506 159.22671,46.92 152.6939,46.92 c -8.61071,0 -13.61354,-6.291273 -13.61354,-17.066435 0,-10.770224 5.00283,-17.553671 13.00909,-17.553671 z m 60.06133,0 c 7.64892,0 11.82895,5.412651 12.18821,15.595132 l 0.0218,0.910817 H 204.4763 c 0.0675,10.91014 2.73479,15.811308 8.80877,15.811308 4.54772,0 7.43447,-2.970318 8.36581,-8.468957 l 0.10621,-0.700466 h 2.66807 C 223.56011,42.657506 219.28602,46.92 212.75206,46.92 c -8.60704,0 -13.61427,-6.291273 -13.61427,-17.066435 0,-10.770224 5.00723,-17.553671 13.01299,-17.553671 z m -145.405312,0 c 7.647869,0 11.835519,5.412651 12.189467,15.595132 l 0.02127,0.910817 H 59.070482 c 0.06987,10.91014 2.738095,15.811308 8.811671,15.811308 4.54574,0 7.433309,-2.970318 8.366842,-8.468957 l 0.106493,-0.700466 h 2.667444 C 78.158643,42.657506 73.887435,46.92 67.345996,46.92 c -8.606786,0 -13.610402,-6.291273 -13.610402,-17.066435 0,-10.770224 5.003616,-17.553671 13.009874,-17.553671 z m 65.230342,0 v 11.328027 h -1.56626 c -1.28469,-5.967479 -3.91692,-8.856663 -8.26375,-8.856663 -5.34155,0 -8.47576,5.562589 -8.47576,15.385008 0,9.619569 2.78056,14.493603 8.26375,14.493603 4.23397,0 6.82706,-2.774417 7.79034,-8.326807 l 0.1164,-0.739979 h 2.918 C 131.83251,42.935754 127.77481,46.92 121.36393,46.92 c -8.26039,0 -13.89274,-6.731193 -13.89274,-16.763734 0,-10.232966 5.70023,-17.23651 14.10476,-17.23651 2.83123,0 4.68277,0.640409 6.74502,2.416394 l 0.52064,0.467941 1.92494,-3.504197 z m 118.9107,0 v 10.690167 h -1.57579 c -0.61743,-5.518736 -2.87513,-8.138127 -7.19143,-8.138127 -3.63038,0 -6.4386,2.483066 -6.4386,5.722412 0,2.647825 0.94564,3.580102 6.53946,6.094991 l 0.72371,0.322842 2.86867,1.239098 c 5.20939,2.276144 7.06085,4.480068 7.06085,8.548726 0,5.793009 -4.58955,9.933886 -11.03137,9.933886 -2.886,0 -5.19563,-0.69617 -7.56836,-2.4054 L 233.6245,43.816979 231.981,46.92 h -1.23404 V 35.404579 l 1.50809,-0.07303 c 1.23081,6.282319 4.10835,9.314743 8.90667,9.314743 4.03661,0 7.05279,-2.693234 7.05279,-6.206854 0,-2.199308 -1.14269,-3.731065 -4.05106,-5.164935 l -0.60539,-0.285638 -2.60349,-1.174182 -3.15482,-1.450078 c -4.9974,-2.342683 -6.57803,-4.273145 -6.57803,-8.271206 0,-5.450573 4.25102,-9.173549 10.28014,-9.173549 2.42763,0 4.29037,0.51236 6.3567,1.799843 l 0.62678,0.409761 1.16552,-2.829559 z m 114.32753,4.528089 c 15.61494,-9.9713271 32.36859,0.715973 14.87449,14.083017 -3.50783,2.679744 -8.31005,5.494285 -14.55919,8.523912 0.064,0.07219 0.12328,0.14511 0.19124,0.217297 2.90172,3.10918 17.87104,2.256936 33.76255,-6.245615 1.94159,-1.038603 1.72665,1.752367 -0.55158,3.995308 -7.69525,7.577383 -32.96126,13.677888 -40.71815,5.920038 -0.12328,-0.122275 -0.23391,-0.25118 -0.35007,-0.377875 -1.17033,0.508989 -2.36911,1.022398 -3.61688,1.543173 -6.26573,2.620079 -11.48598,2.869049 -15.81328,-2.486019 -3.94245,-4.878488 -4.80775,-12.895621 -6.82679,-15.814758 -1.20984,-1.749421 -2.94597,-2.105198 -5.65488,-0.299796 -6.939,4.627309 -13.23634,15.998172 -15.82908,18.553431 -1.81674,1.789933 -4.174,1.473196 -5.58139,-0.414705 -2.33039,-3.124649 -5.13966,-13.963688 -5.95122,-16.135916 -1.35841,-3.636584 -3.82787,-3.820734 -7.03778,-1.358287 -4.35101,3.338263 -9.31523,9.954386 -12.93132,15.070059 -2.38728,3.375092 -4.74137,4.79378 -7.09626,4.79378 -3.76939,0 -4.49324,-4.125686 -4.76587,-6.982949 -0.49389,-5.145137 -0.82579,-14.008621 -0.82579,-17.735807 0,-2.982485 0.0585,-6.255927 4.13764,-6.255927 3.29368,0 5.18312,1.759733 5.23843,5.478816 0.0161,1.116901 0.0401,3.073261 0.064,5.094048 l 0.0142,1.214004 c 0.0305,2.620224 0.058,5.08737 0.0648,5.698694 l 0.002,0.144175 c 4.00725,-5.523012 8.49654,-11.359815 13.55006,-14.812249 5.51185,-3.768436 11.39352,-3.828837 14.05581,-0.453745 2.81558,3.568081 5.82004,14.379866 5.82004,14.379866 0,0 8.66012,-10.68509 13.48368,-13.926121 5.81056,-3.90618 11.88584,-4.04466 14.64216,-0.453745 3.25969,4.244278 3.96379,13.095239 8.25552,18.290465 1.7148,2.07426 4.47744,2.363007 7.19109,1.559378 0.85029,-0.25339 1.6824,-0.516355 2.50661,-0.787423 -1.12055,-7.164152 3.65481,-15.80371 10.25559,-20.018524 z M 91.904589,12.299894 c 0.323337,2.320561 0.473412,3.467856 0.606652,5.180445 l 0.04948,0.672114 -2.82e-4,0.771285 0.267082,-0.614431 c 1.675753,-3.637105 4.68676,-5.724043 8.283569,-5.724043 3.65559,0 6.3601,2.325261 6.3601,5.711533 0,2.039893 -1.24175,3.381294 -3.06826,3.381294 -1.68376,0 -2.99774,-0.987178 -2.99774,-2.398263 0,-0.104525 0.0411,-0.28931 0.0921,-0.49381 l 0.0532,-0.208829 0.14532,-0.705128 v -0.633785 c 0,-0.991326 -0.87885,-1.694795 -2.192839,-1.694795 -3.661862,0 -6.03795,4.131434 -6.202999,10.686499 l -0.0092,0.738227 v 14.734678 c 0,2.901014 0.668769,3.543261 4.627536,3.780206 l 0.560471,0.02997 V 46.92 c -3.707788,-0.326209 -5.298725,-0.40785 -7.535758,-0.41848 h -1.164423 c -2.103939,0.0097 -3.616147,0.07916 -6.710123,0.341923 L 82.18385,46.92 v -1.406937 c 4.263273,-0.203928 5.182705,-0.72891 5.254596,-3.428411 l 0.0048,-0.381767 V 18.646872 c -0.06567,-2.891061 -0.402441,-3.345225 -3.741733,-3.441146 l -0.497762,-0.01149 h -0.946792 v -1.272548 c 4.16296,-0.348416 6.649041,-0.7773 9.647645,-1.621794 z M 193.65628,0 v 38.607713 c 0,3.915723 0.3707,4.378358 4.38268,4.533015 l 0.5207,0.01796 v 1.132235 l -1.00359,0.136907 c -3.96617,0.467371 -5.10726,0.737251 -7.85883,1.602753 -0.67486,-2.540644 -0.67486,-2.810523 -0.9467,-5.349593 -1.87679,3.74684 -4.49403,5.481779 -8.32823,5.481779 -7.31831,0 -12.42161,-6.750921 -12.42161,-16.383178 0,-9.62675 5.04008,-16.385539 12.22169,-16.385539 3.43849,0 5.3649,1.083275 7.67399,4.608585 l 0.38872,0.610396 V 6.9090716 c 0,-3.3328409 -0.49351,-3.8987766 -4.25979,-3.9401517 l -0.51004,-0.00261 V 1.8269974 C 187.27834,1.4288662 190.30176,0.89146773 193.65628,0 Z m -12.82305,15.267467 c -4.83699,0 -7.19266,4.753183 -7.19266,14.447599 0,9.55987 2.55323,14.575852 7.38864,14.575852 4.83857,0 7.32385,-4.816129 7.32385,-14.109267 0,-9.83211 -2.5564,-14.914184 -7.51983,-14.914184 z m 195.04575,10.985287 c 8.36853,-6.932123 1.05891,-9.754767 -6.0097,-4.618469 -4.02542,2.925031 -7.23217,7.548656 -6.86788,12.15976 5.38778,-2.36227 9.81307,-5.002237 12.87758,-7.541291 z M 152.02665,14.11633 c -4.11791,0 -6.62266,3.838724 -7.39672,11.325038 l -0.0789,0.846814 h 14.41111 C 158.56102,18.035619 156.36223,14.11633 152.02665,14.11633 Z m -85.347908,0 c -4.118664,0 -6.619065,3.838724 -7.393513,11.325038 l -0.07894,0.846814 h 14.41189 C 73.216257,18.035619 71.01275,14.11633 66.678742,14.11633 Z m 145.404528,0 c -4.11538,0 -6.62062,3.838724 -7.39116,11.325038 l -0.0785,0.846814 h 14.40864 C 218.62352,18.035619 216.42172,14.11633 212.08327,14.11633 Z"
		   id="Combined-Shape" />
	  </g>
	</g>
  </g>
</svg>