<?xml version="1.0" encoding="UTF-8"?>
<svg class="footer-brands-logo__amg"
   style="fill:#fff;"
   version="1.1"
   viewBox="0 0 121.43303 12"
   xml:space="preserve"
   xmlns="http://www.w3.org/2000/svg"
   xmlns:svg="http://www.w3.org/2000/svg">
<g
   id="g18"
   transform="matrix(1.0714286,0,0,1.0714286,-390.28126,-307.07144)"
   style="opacity:1;stroke-width:0.933332">
	<path
   d="m 477.6,291.7 c 0,-0.4 -0.3,-0.6 -0.6,-0.6 h -0.3 -10.1 -0.3 c -0.4,0 -0.6,0.3 -0.6,0.6 v 0.1 0.8 c 0,0.4 0.3,0.7 0.6,0.7 h 6.7 c 0.4,0 0.4,0.2 0.4,0.7 v 0.1 c 0,0.5 0,0.6 -0.4,0.6 h -13.6 -0.1 c -0.4,0 -0.6,-0.3 -0.6,-0.6 v -0.1 -3.7 -0.1 c 0,-0.4 0.3,-0.6 0.6,-0.6 h 0.1 17 0.5 c 0.4,0 0.6,-0.3 0.6,-0.6 v -0.3 -0.9 -0.3 c 0,-0.4 -0.3,-0.6 -0.6,-0.6 h -0.5 -14.9 -3.4 -3 c -0.4,0 -0.6,0.3 -0.6,0.6 v 9.7 c 0,0.4 0.3,0.6 0.6,0.6 h 2.8 3.6 15.1 0.3 c 0.4,0 0.6,-0.3 0.6,-0.6 v -0.5 -4.4 -0.6"
   id="path2"
   style="stroke-width:0.933332" />
	<path
   d="m 442.7,294.3 c -0.3,0.2 -0.5,0.4 -0.9,0.4 H 439 c -0.4,0 -0.6,-0.2 -0.9,-0.4 l -5.3,-3.4 c -0.3,-0.2 -0.6,-0.1 -0.6,0.3 v 5.7 c 0,0.4 -0.3,0.6 -0.6,0.6 h -2.8 c -0.4,0 -0.7,-0.3 -0.7,-0.6 v -9.7 c 0,-0.4 0.3,-0.6 0.7,-0.6 h 3 c 0.4,0 0.6,0.2 0.9,0.3 l 7.2,4.7 c 0.3,0.2 0.6,0.2 0.9,0 l 7.2,-4.7 c 0.3,-0.2 0.5,-0.3 0.9,-0.3 h 3 c 0.4,0 0.6,0.3 0.6,0.6 v 9.7 c 0,0.4 -0.3,0.6 -0.6,0.6 h -2.8 c -0.4,0 -0.7,-0.3 -0.7,-0.6 v -5.7 c 0,-0.4 -0.2,-0.5 -0.6,-0.3 z"
   id="path4"
   style="stroke-width:0.933332" />
	<path
   d="m 411.5,289.5 c -0.2,0 -0.3,0.1 -0.5,0.3 l -1.7,2.2 c -0.1,0.2 0,0.3 0.1,0.3 h 12.3 c 0.4,0 0.4,-0.2 0.4,-0.5 v -1.5 c 0,-0.5 0,-0.7 -0.4,-0.7 h -10.2 z m -7.2,8.1 h -3.6 c -0.3,0 -0.4,-0.3 -0.3,-0.5 l 7.7,-10 c 0.2,-0.2 0.4,-0.4 0.7,-0.4 h 16.6 c 0.4,0 0.7,0.4 0.7,0.8 v 9.3 0.2 c 0,0.4 -0.3,0.6 -0.6,0.6 h -0.1 -2.7 c -0.4,0 -0.6,-0.3 -0.6,-0.6 v -1.4 c 0,-0.4 0,-0.5 -0.4,-0.5 h -14.6 c -0.3,0 -0.5,0.2 -0.6,0.4 v 0.1 l -1.1,1.4 c -0.3,0.3 -0.7,0.6 -1.1,0.6 z"
   id="path6"
   style="stroke-width:0.933332" />
	<path
   d="m 397,297.6 c 0.4,0 0.7,-0.3 1,-0.6 l 7.5,-9.7 c 0.3,-0.4 0.1,-0.7 -0.2,-0.7 h -1.5 c -0.3,0 -0.5,0.2 -0.7,0.4 l -7.7,10 c -0.1,0.2 0,0.5 0.3,0.5 h 1.3 z"
   id="path8"
   style="stroke-width:0.933332" />
	<path
   d="m 391.8,297.6 c 0.4,0 0.7,-0.3 1,-0.6 l 7.5,-9.7 c 0.3,-0.4 0.1,-0.7 -0.2,-0.7 H 398 c -0.3,0 -0.5,0.2 -0.7,0.4 l -7.7,10 c -0.1,0.2 0,0.5 0.3,0.5 h 1.9 z"
   id="path10"
   style="stroke-width:0.933332" />
	<path
   d="m 383.3,297.6 c -0.3,0 -0.4,-0.3 -0.3,-0.5 l 7.7,-10 c 0.2,-0.2 0.4,-0.4 0.7,-0.4 h 3.1 c 0.4,0 0.5,0.3 0.2,0.7 l -7.5,9.7 c -0.3,0.4 -0.7,0.6 -1,0.6 h -2.9 z"
   id="path12"
   style="stroke-width:0.933332" />
	<path
   d="m 376.2,297.6 c -0.3,0 -0.4,-0.3 -0.3,-0.5 l 7.7,-10 c 0.2,-0.2 0.4,-0.4 0.7,-0.4 h 4.1 c 0.4,0 0.5,0.3 0.2,0.7 l -7.5,9.7 c -0.3,0.4 -0.7,0.6 -1,0.6 h -3.9 z"
   id="path14"
   style="stroke-width:0.933332" />
	<path
   d="m 364.6,297.6 c -0.3,0 -0.4,-0.3 -0.3,-0.5 l 7.7,-10 c 0.2,-0.2 0.4,-0.4 0.7,-0.4 h 9.1 c 0.4,0 0.5,0.3 0.2,0.7 l -7.5,9.7 c -0.3,0.4 -0.7,0.6 -1,0.6 h -8.9 z"
   id="path16"
   style="stroke-width:0.933332" />
</g>
</svg>